M48
METRIC,LZ,000.000
;FILE_FORMAT=3:3
;TYPE=PLATED
;Layer: PTH_Through
;EasyEDA v6.5.51, 2025-09-08 19:21:40
;d3bb8f252c9f4849ab45821a22fd5e0f,1706e92ce9fe400092762f31ba6d8469,10
;Gerber Generator version 0.2
;Holesize 1 = 0.310 mm
T01C0.310
;Holesize 2 = 0.889 mm
T02C0.889
;Holesize 3 = 0.915 mm
T03C0.915
%
G05
G90
T01
X045085Y081407
X029083Y043561
X027851Y043631
X026861Y043631
T02
X061595Y080010
X061595Y077470
X061595Y074930
X061595Y072390
X058801Y080010
X058801Y077470
X058801Y074930
X058801Y072390
X017907Y077724
X020447Y077724
X022987Y077724
X025527Y077724
X017399Y053848
X019939Y053848
X022479Y053848
X022479Y070739
X019939Y070739
X017399Y070739
X022479Y067945
X019939Y067945
X017399Y067945
X022479Y065151
X019939Y065151
X017399Y065151
X022479Y062357
X019939Y062357
X017399Y062357
X022479Y059563
X019939Y059563
X017399Y059563
X022479Y056769
X019939Y056769
X017399Y056769
T03
X034798Y083566
X034798Y081026
X034798Y078486
X034798Y075946
X034798Y073406
X034798Y070866
X034798Y068326
X034798Y065786
X034798Y063246
X034798Y060706
X034798Y058166
X034798Y055626
X034798Y053086
X034798Y050546
X034798Y048006
X050038Y048006
X050038Y050546
X050038Y053086
X050038Y055626
X050038Y058166
X050038Y060706
X050038Y063246
X050038Y065786
X050038Y068326
X050038Y070866
X050038Y073406
X050038Y075946
X050038Y078486
X050038Y081026
X050038Y083566
X055880Y063500
X057912Y063500
X057912Y061595
X055880Y061595
X059944Y061595
X061976Y061595
X061976Y063500
X059944Y063500
X059944Y059690
X061976Y059690
X061976Y057785
X059944Y057785
X055880Y057785
X057912Y057785
X057912Y059690
X055880Y059690
X055880Y052070
X057912Y052070
X057912Y050165
X055880Y050165
X059944Y050165
X061976Y050165
X061976Y052070
X059944Y052070
X059944Y055880
X061976Y055880
X061976Y053975
X059944Y053975
X055880Y053975
X057912Y053975
X057912Y055880
X055880Y055880
X059944Y048260
X061976Y048260
X061976Y046355
X059944Y046355
X055880Y046355
X057912Y046355
X057912Y048260
X055880Y048260
M30
