G04 Layer: TopSilkscreenLayer*
G04 EasyEDA v6.5.51, 2025-09-08 19:21:40*
G04 d3bb8f252c9f4849ab45821a22fd5e0f,1706e92ce9fe400092762f31ba6d8469,10*
G04 Gerber Generator version 0.2*
G04 Scale: 100 percent, Rotated: No, Reflected: No *
G04 Dimensions in millimeters *
G04 leading zeros omitted , absolute positions ,4 integer and 5 decimal *
%FSLAX45Y45*%
%MOMM*%

%ADD10C,0.1524*%
%ADD11C,0.3000*%
%ADD12C,0.0800*%
%ADD13C,0.2032*%
%ADD14C,0.2030*%
%ADD15C,0.2540*%
%ADD16C,0.0178*%

%LPD*%
D10*
X2682747Y4853559D02*
G01*
X2693161Y4858893D01*
X2703575Y4869306D01*
X2708656Y4879467D01*
X2708656Y4900295D01*
X2703575Y4910709D01*
X2693161Y4921122D01*
X2682747Y4926456D01*
X2667000Y4931537D01*
X2641091Y4931537D01*
X2625597Y4926456D01*
X2615184Y4921122D01*
X2604770Y4910709D01*
X2599690Y4900295D01*
X2599690Y4879467D01*
X2604770Y4869306D01*
X2615184Y4858893D01*
X2625597Y4853559D01*
X2687827Y4819269D02*
G01*
X2693161Y4808854D01*
X2708656Y4793361D01*
X2599690Y4793361D01*
X2244852Y4557140D02*
G01*
X2234438Y4551806D01*
X2224024Y4541393D01*
X2218943Y4531232D01*
X2218943Y4510404D01*
X2224024Y4499990D01*
X2234438Y4489577D01*
X2244852Y4484243D01*
X2260600Y4479162D01*
X2286508Y4479162D01*
X2302002Y4484243D01*
X2312415Y4489577D01*
X2322829Y4499990D01*
X2327909Y4510404D01*
X2327909Y4531232D01*
X2322829Y4541393D01*
X2312415Y4551806D01*
X2302002Y4557140D01*
X2244852Y4596511D02*
G01*
X2239772Y4596511D01*
X2229358Y4601845D01*
X2224024Y4606925D01*
X2218943Y4617338D01*
X2218943Y4638167D01*
X2224024Y4648580D01*
X2229358Y4653661D01*
X2239772Y4658995D01*
X2250186Y4658995D01*
X2260600Y4653661D01*
X2276093Y4643246D01*
X2327909Y4591430D01*
X2327909Y4664075D01*
X6211315Y7061200D02*
G01*
X6102350Y7061200D01*
X6185408Y7021829D02*
G01*
X6190488Y7021829D01*
X6200902Y7016495D01*
X6206236Y7011415D01*
X6211315Y7001002D01*
X6211315Y6980173D01*
X6206236Y6969760D01*
X6200902Y6964679D01*
X6190488Y6959345D01*
X6180074Y6959345D01*
X6169659Y6964679D01*
X6154165Y6974839D01*
X6102350Y7026910D01*
X6102350Y6954265D01*
X6185408Y6841997D02*
G01*
X6195822Y6847078D01*
X6206236Y6857492D01*
X6211315Y6867905D01*
X6211315Y6888734D01*
X6206236Y6899147D01*
X6195822Y6909562D01*
X6185408Y6914642D01*
X6169659Y6919976D01*
X6143752Y6919976D01*
X6128258Y6914642D01*
X6117843Y6909562D01*
X6107429Y6899147D01*
X6102350Y6888731D01*
X6102350Y6867905D01*
X6107429Y6857492D01*
X6117843Y6847078D01*
X6128258Y6841997D01*
X6065774Y6807708D02*
G01*
X6065774Y6714236D01*
X6190488Y6679945D02*
G01*
X6195822Y6669531D01*
X6211315Y6653784D01*
X6102350Y6653784D01*
X5957315Y7061200D02*
G01*
X5848350Y7061200D01*
X5931408Y7021829D02*
G01*
X5936488Y7021829D01*
X5946902Y7016495D01*
X5952236Y7011415D01*
X5957315Y7001002D01*
X5957315Y6980173D01*
X5952236Y6969760D01*
X5946902Y6964679D01*
X5936488Y6959345D01*
X5926074Y6959345D01*
X5915659Y6964679D01*
X5900165Y6974839D01*
X5848350Y7026910D01*
X5848350Y6954265D01*
X5931408Y6841997D02*
G01*
X5941822Y6847078D01*
X5952236Y6857492D01*
X5957315Y6867905D01*
X5957315Y6888734D01*
X5952236Y6899147D01*
X5941822Y6909562D01*
X5931408Y6914642D01*
X5915659Y6919976D01*
X5889752Y6919976D01*
X5874258Y6914642D01*
X5863843Y6909562D01*
X5853429Y6899147D01*
X5848350Y6888734D01*
X5848350Y6867905D01*
X5853429Y6857492D01*
X5863843Y6847078D01*
X5874258Y6841997D01*
X5811774Y6807708D02*
G01*
X5811774Y6714236D01*
X5931408Y6674612D02*
G01*
X5936488Y6674612D01*
X5946902Y6669531D01*
X5952236Y6664197D01*
X5957315Y6653784D01*
X5957315Y6633210D01*
X5952236Y6622795D01*
X5946902Y6617462D01*
X5936488Y6612381D01*
X5926074Y6612381D01*
X5915659Y6617462D01*
X5900165Y6627876D01*
X5848350Y6679945D01*
X5848350Y6607047D01*
X2781300Y7811515D02*
G01*
X2781300Y7702550D01*
X2815590Y7811515D02*
G01*
X2815590Y7702550D01*
X2815590Y7811515D02*
G01*
X2862325Y7811515D01*
X2877820Y7806436D01*
X2883154Y7801102D01*
X2888234Y7790687D01*
X2888234Y7780273D01*
X2883154Y7769860D01*
X2877820Y7764779D01*
X2862325Y7759700D01*
X2815590Y7759700D02*
G01*
X2862325Y7759700D01*
X2877820Y7754365D01*
X2883154Y7749286D01*
X2888234Y7738871D01*
X2888234Y7723123D01*
X2883154Y7712710D01*
X2877820Y7707629D01*
X2862325Y7702550D01*
X2815590Y7702550D01*
X2922524Y7811515D02*
G01*
X2922524Y7733537D01*
X2927858Y7718044D01*
X2938272Y7707629D01*
X2953765Y7702550D01*
X2964179Y7702550D01*
X2979674Y7707629D01*
X2990088Y7718044D01*
X2995422Y7733537D01*
X2995422Y7811515D01*
X3102356Y7796021D02*
G01*
X3091941Y7806436D01*
X3076447Y7811515D01*
X3055620Y7811515D01*
X3040125Y7806436D01*
X3029711Y7796021D01*
X3029711Y7785608D01*
X3034791Y7775194D01*
X3040125Y7769860D01*
X3050540Y7764779D01*
X3081527Y7754365D01*
X3091941Y7749286D01*
X3097275Y7743952D01*
X3102356Y7733537D01*
X3102356Y7718044D01*
X3091941Y7707629D01*
X3076447Y7702550D01*
X3055620Y7702550D01*
X3040125Y7707629D01*
X3029711Y7718044D01*
X2971802Y5332984D02*
G01*
X2971800Y5441950D01*
X2971802Y5332984D02*
G01*
X2925063Y5332984D01*
X2909570Y5338063D01*
X2904236Y5343397D01*
X2899156Y5353812D01*
X2899156Y5369305D01*
X2904236Y5379720D01*
X2909570Y5384800D01*
X2925063Y5390134D01*
X2971800Y5390136D01*
X2833624Y5332984D02*
G01*
X2844038Y5338063D01*
X2854452Y5348478D01*
X2859531Y5358892D01*
X2864865Y5374637D01*
X2864865Y5400547D01*
X2859531Y5416042D01*
X2854452Y5426455D01*
X2844038Y5436870D01*
X2833624Y5441950D01*
X2812795Y5441950D01*
X2802381Y5436870D01*
X2791968Y5426455D01*
X2786888Y5416042D01*
X2781554Y5400547D01*
X2781554Y5374639D01*
X2786888Y5358892D01*
X2791968Y5348478D01*
X2802381Y5338063D01*
X2812795Y5332984D01*
X2833624Y5332984D01*
X2747263Y5332984D02*
G01*
X2721356Y5441950D01*
X2695447Y5332984D02*
G01*
X2721356Y5441950D01*
X2695447Y5332984D02*
G01*
X2669540Y5441950D01*
X2643377Y5332984D02*
G01*
X2669540Y5441950D01*
X2609088Y5332984D02*
G01*
X2609088Y5441950D01*
X2609088Y5332984D02*
G01*
X2541524Y5332984D01*
X2609088Y5384800D02*
G01*
X2567686Y5384800D01*
X2609088Y5441950D02*
G01*
X2541524Y5441950D01*
X2507234Y5332984D02*
G01*
X2507234Y5441950D01*
X2507234Y5332984D02*
G01*
X2460497Y5332984D01*
X2445004Y5338063D01*
X2439670Y5343397D01*
X2434590Y5353812D01*
X2434590Y5364226D01*
X2439670Y5374639D01*
X2445004Y5379720D01*
X2460497Y5384800D01*
X2507234Y5384800D01*
X2470911Y5384800D02*
G01*
X2434590Y5441950D01*
X2511043Y7084821D02*
G01*
X2500629Y7095236D01*
X2485136Y7100315D01*
X2464308Y7100315D01*
X2448813Y7095236D01*
X2438400Y7084821D01*
X2438400Y7074408D01*
X2443479Y7063994D01*
X2448813Y7058660D01*
X2459227Y7053579D01*
X2490470Y7043165D01*
X2500629Y7038086D01*
X2505963Y7032752D01*
X2511043Y7022337D01*
X2511043Y7006844D01*
X2500629Y6996429D01*
X2485136Y6991350D01*
X2464308Y6991350D01*
X2448813Y6996429D01*
X2438400Y7006844D01*
X2545334Y7100315D02*
G01*
X2545334Y6991350D01*
X2545334Y7100315D02*
G01*
X2612897Y7100315D01*
X2545334Y7048500D02*
G01*
X2586990Y7048500D01*
X2545334Y6991350D02*
G01*
X2612897Y6991350D01*
X2647188Y7100315D02*
G01*
X2647188Y6991350D01*
X2647188Y7100315D02*
G01*
X2693924Y7100315D01*
X2709672Y7095236D01*
X2714752Y7089902D01*
X2720086Y7079487D01*
X2720086Y7069073D01*
X2714752Y7058660D01*
X2709672Y7053579D01*
X2693924Y7048500D01*
X2647188Y7048500D01*
X2683509Y7048500D02*
G01*
X2720086Y6991350D01*
X2754375Y7100315D02*
G01*
X2795777Y6991350D01*
X2837434Y7100315D02*
G01*
X2795777Y6991350D01*
X2902965Y7100315D02*
G01*
X2892552Y7095236D01*
X2882138Y7084821D01*
X2876804Y7074408D01*
X2871724Y7058660D01*
X2871724Y7032752D01*
X2876804Y7017258D01*
X2882138Y7006844D01*
X2892552Y6996429D01*
X2902965Y6991350D01*
X2923540Y6991350D01*
X2933954Y6996429D01*
X2944368Y7006844D01*
X2949702Y7017258D01*
X2954781Y7032752D01*
X2954781Y7058660D01*
X2949702Y7074408D01*
X2944368Y7084821D01*
X2933954Y7095236D01*
X2923540Y7100315D01*
X2902965Y7100315D01*
X2989072Y7079487D02*
G01*
X2999486Y7084821D01*
X3014979Y7100315D01*
X3014979Y6991350D01*
X2511043Y6818121D02*
G01*
X2500629Y6828536D01*
X2485136Y6833615D01*
X2464308Y6833615D01*
X2448813Y6828536D01*
X2438400Y6818121D01*
X2438400Y6807708D01*
X2443479Y6797294D01*
X2448813Y6791960D01*
X2459227Y6786879D01*
X2490470Y6776465D01*
X2500629Y6771386D01*
X2505963Y6766052D01*
X2511043Y6755637D01*
X2511043Y6740144D01*
X2500629Y6729729D01*
X2485136Y6724650D01*
X2464308Y6724650D01*
X2448813Y6729729D01*
X2438400Y6740144D01*
X2545334Y6833615D02*
G01*
X2545334Y6724650D01*
X2545334Y6833615D02*
G01*
X2612897Y6833615D01*
X2545334Y6781800D02*
G01*
X2586990Y6781800D01*
X2545334Y6724650D02*
G01*
X2612897Y6724650D01*
X2647188Y6833615D02*
G01*
X2647188Y6724650D01*
X2647188Y6833615D02*
G01*
X2693924Y6833615D01*
X2709672Y6828536D01*
X2714752Y6823202D01*
X2720086Y6812787D01*
X2720086Y6802373D01*
X2714752Y6791960D01*
X2709672Y6786879D01*
X2693924Y6781800D01*
X2647188Y6781800D01*
X2683509Y6781800D02*
G01*
X2720086Y6724650D01*
X2754375Y6833615D02*
G01*
X2795777Y6724650D01*
X2837434Y6833615D02*
G01*
X2795777Y6724650D01*
X2902965Y6833615D02*
G01*
X2892552Y6828536D01*
X2882138Y6818121D01*
X2876804Y6807708D01*
X2871724Y6791960D01*
X2871724Y6766052D01*
X2876804Y6750558D01*
X2882138Y6740144D01*
X2892552Y6729729D01*
X2902965Y6724650D01*
X2923540Y6724650D01*
X2933954Y6729729D01*
X2944368Y6740144D01*
X2949702Y6750558D01*
X2954781Y6766052D01*
X2954781Y6791960D01*
X2949702Y6807708D01*
X2944368Y6818121D01*
X2933954Y6828536D01*
X2923540Y6833615D01*
X2902965Y6833615D01*
X2994406Y6807708D02*
G01*
X2994406Y6812787D01*
X2999486Y6823202D01*
X3004820Y6828536D01*
X3014979Y6833615D01*
X3035808Y6833615D01*
X3046222Y6828536D01*
X3051556Y6823202D01*
X3056636Y6812787D01*
X3056636Y6802373D01*
X3051556Y6791960D01*
X3041141Y6776465D01*
X2989072Y6724650D01*
X3061970Y6724650D01*
X2511043Y6526021D02*
G01*
X2500629Y6536436D01*
X2485136Y6541515D01*
X2464308Y6541515D01*
X2448813Y6536436D01*
X2438400Y6526021D01*
X2438400Y6515607D01*
X2443479Y6505194D01*
X2448813Y6499860D01*
X2459227Y6494779D01*
X2490470Y6484365D01*
X2500629Y6479286D01*
X2505963Y6473952D01*
X2511043Y6463537D01*
X2511043Y6448044D01*
X2500629Y6437629D01*
X2485136Y6432550D01*
X2464308Y6432550D01*
X2448813Y6437629D01*
X2438400Y6448044D01*
X2545334Y6541515D02*
G01*
X2545334Y6432550D01*
X2545334Y6541515D02*
G01*
X2612897Y6541515D01*
X2545334Y6489700D02*
G01*
X2586990Y6489700D01*
X2545334Y6432550D02*
G01*
X2612897Y6432550D01*
X2647188Y6541515D02*
G01*
X2647188Y6432550D01*
X2647188Y6541515D02*
G01*
X2693924Y6541515D01*
X2709672Y6536436D01*
X2714752Y6531102D01*
X2720086Y6520687D01*
X2720086Y6510273D01*
X2714752Y6499860D01*
X2709672Y6494779D01*
X2693924Y6489700D01*
X2647188Y6489700D01*
X2683509Y6489700D02*
G01*
X2720086Y6432550D01*
X2754375Y6541515D02*
G01*
X2795777Y6432550D01*
X2837434Y6541515D02*
G01*
X2795777Y6432550D01*
X2902965Y6541515D02*
G01*
X2892552Y6536436D01*
X2882138Y6526021D01*
X2876804Y6515607D01*
X2871724Y6499860D01*
X2871724Y6473952D01*
X2876804Y6458457D01*
X2882138Y6448044D01*
X2892552Y6437629D01*
X2902965Y6432550D01*
X2923540Y6432550D01*
X2933954Y6437629D01*
X2944368Y6448044D01*
X2949702Y6458457D01*
X2954781Y6473952D01*
X2954781Y6499860D01*
X2949702Y6515607D01*
X2944368Y6526021D01*
X2933954Y6536436D01*
X2923540Y6541515D01*
X2902965Y6541515D01*
X2999486Y6541515D02*
G01*
X3056636Y6541515D01*
X3025393Y6499860D01*
X3041141Y6499860D01*
X3051556Y6494779D01*
X3056636Y6489700D01*
X3061970Y6473952D01*
X3061970Y6463537D01*
X3056636Y6448044D01*
X3046222Y6437629D01*
X3030727Y6432550D01*
X3014979Y6432550D01*
X2999486Y6437629D01*
X2994406Y6442710D01*
X2989072Y6453123D01*
X2511043Y6259321D02*
G01*
X2500629Y6269736D01*
X2485136Y6274815D01*
X2464308Y6274815D01*
X2448813Y6269736D01*
X2438400Y6259321D01*
X2438400Y6248907D01*
X2443479Y6238494D01*
X2448813Y6233160D01*
X2459227Y6228079D01*
X2490470Y6217665D01*
X2500629Y6212586D01*
X2505963Y6207252D01*
X2511043Y6196837D01*
X2511043Y6181344D01*
X2500629Y6170929D01*
X2485136Y6165850D01*
X2464308Y6165850D01*
X2448813Y6170929D01*
X2438400Y6181344D01*
X2545334Y6274815D02*
G01*
X2545334Y6165850D01*
X2545334Y6274815D02*
G01*
X2612897Y6274815D01*
X2545334Y6223000D02*
G01*
X2586990Y6223000D01*
X2545334Y6165850D02*
G01*
X2612897Y6165850D01*
X2647188Y6274815D02*
G01*
X2647188Y6165850D01*
X2647188Y6274815D02*
G01*
X2693924Y6274815D01*
X2709672Y6269736D01*
X2714752Y6264402D01*
X2720086Y6253987D01*
X2720086Y6243573D01*
X2714752Y6233160D01*
X2709672Y6228079D01*
X2693924Y6223000D01*
X2647188Y6223000D01*
X2683509Y6223000D02*
G01*
X2720086Y6165850D01*
X2754375Y6274815D02*
G01*
X2795777Y6165850D01*
X2837434Y6274815D02*
G01*
X2795777Y6165850D01*
X2902965Y6274815D02*
G01*
X2892552Y6269736D01*
X2882138Y6259321D01*
X2876804Y6248907D01*
X2871724Y6233160D01*
X2871724Y6207252D01*
X2876804Y6191757D01*
X2882138Y6181344D01*
X2892552Y6170929D01*
X2902965Y6165850D01*
X2923540Y6165850D01*
X2933954Y6170929D01*
X2944368Y6181344D01*
X2949702Y6191757D01*
X2954781Y6207252D01*
X2954781Y6233160D01*
X2949702Y6248907D01*
X2944368Y6259321D01*
X2933954Y6269736D01*
X2923540Y6274815D01*
X2902965Y6274815D01*
X3041141Y6274815D02*
G01*
X2989072Y6202171D01*
X3067050Y6202171D01*
X3041141Y6274815D02*
G01*
X3041141Y6165850D01*
X2511043Y6005321D02*
G01*
X2500629Y6015736D01*
X2485136Y6020815D01*
X2464308Y6020815D01*
X2448813Y6015736D01*
X2438400Y6005321D01*
X2438400Y5994907D01*
X2443479Y5984494D01*
X2448813Y5979160D01*
X2459227Y5974079D01*
X2490470Y5963665D01*
X2500629Y5958586D01*
X2505963Y5953252D01*
X2511043Y5942837D01*
X2511043Y5927344D01*
X2500629Y5916929D01*
X2485136Y5911850D01*
X2464308Y5911850D01*
X2448813Y5916929D01*
X2438400Y5927344D01*
X2545334Y6020815D02*
G01*
X2545334Y5911850D01*
X2545334Y6020815D02*
G01*
X2612897Y6020815D01*
X2545334Y5969000D02*
G01*
X2586990Y5969000D01*
X2545334Y5911850D02*
G01*
X2612897Y5911850D01*
X2647188Y6020815D02*
G01*
X2647188Y5911850D01*
X2647188Y6020815D02*
G01*
X2693924Y6020815D01*
X2709672Y6015736D01*
X2714752Y6010402D01*
X2720086Y5999987D01*
X2720086Y5989573D01*
X2714752Y5979160D01*
X2709672Y5974079D01*
X2693924Y5969000D01*
X2647188Y5969000D01*
X2683509Y5969000D02*
G01*
X2720086Y5911850D01*
X2754375Y6020815D02*
G01*
X2795777Y5911850D01*
X2837434Y6020815D02*
G01*
X2795777Y5911850D01*
X2902965Y6020815D02*
G01*
X2892552Y6015736D01*
X2882138Y6005321D01*
X2876804Y5994907D01*
X2871724Y5979160D01*
X2871724Y5953252D01*
X2876804Y5937757D01*
X2882138Y5927344D01*
X2892552Y5916929D01*
X2902965Y5911850D01*
X2923540Y5911850D01*
X2933954Y5916929D01*
X2944368Y5927344D01*
X2949702Y5937757D01*
X2954781Y5953252D01*
X2954781Y5979160D01*
X2949702Y5994907D01*
X2944368Y6005321D01*
X2933954Y6015736D01*
X2923540Y6020815D01*
X2902965Y6020815D01*
X3051556Y6020815D02*
G01*
X2999486Y6020815D01*
X2994406Y5974079D01*
X2999486Y5979160D01*
X3014979Y5984494D01*
X3030727Y5984494D01*
X3046222Y5979160D01*
X3056636Y5969000D01*
X3061970Y5953252D01*
X3061970Y5942837D01*
X3056636Y5927344D01*
X3046222Y5916929D01*
X3030727Y5911850D01*
X3014979Y5911850D01*
X2999486Y5916929D01*
X2994406Y5922010D01*
X2989072Y5932423D01*
X2511043Y5738621D02*
G01*
X2500629Y5749036D01*
X2485136Y5754115D01*
X2464308Y5754115D01*
X2448813Y5749036D01*
X2438400Y5738621D01*
X2438400Y5728207D01*
X2443479Y5717794D01*
X2448813Y5712460D01*
X2459227Y5707379D01*
X2490470Y5696965D01*
X2500629Y5691886D01*
X2505963Y5686552D01*
X2511043Y5676137D01*
X2511043Y5660644D01*
X2500629Y5650229D01*
X2485136Y5645150D01*
X2464308Y5645150D01*
X2448813Y5650229D01*
X2438400Y5660644D01*
X2545334Y5754115D02*
G01*
X2545334Y5645150D01*
X2545334Y5754115D02*
G01*
X2612897Y5754115D01*
X2545334Y5702300D02*
G01*
X2586990Y5702300D01*
X2545334Y5645150D02*
G01*
X2612897Y5645150D01*
X2647188Y5754115D02*
G01*
X2647188Y5645150D01*
X2647188Y5754115D02*
G01*
X2693924Y5754115D01*
X2709672Y5749036D01*
X2714752Y5743702D01*
X2720086Y5733287D01*
X2720086Y5722873D01*
X2714752Y5712460D01*
X2709672Y5707379D01*
X2693924Y5702300D01*
X2647188Y5702300D01*
X2683509Y5702300D02*
G01*
X2720086Y5645150D01*
X2754375Y5754115D02*
G01*
X2795777Y5645150D01*
X2837434Y5754115D02*
G01*
X2795777Y5645150D01*
X2902965Y5754115D02*
G01*
X2892552Y5749036D01*
X2882138Y5738621D01*
X2876804Y5728207D01*
X2871724Y5712460D01*
X2871724Y5686552D01*
X2876804Y5671057D01*
X2882138Y5660644D01*
X2892552Y5650229D01*
X2902965Y5645150D01*
X2923540Y5645150D01*
X2933954Y5650229D01*
X2944368Y5660644D01*
X2949702Y5671057D01*
X2954781Y5686552D01*
X2954781Y5712460D01*
X2949702Y5728207D01*
X2944368Y5738621D01*
X2933954Y5749036D01*
X2923540Y5754115D01*
X2902965Y5754115D01*
X3051556Y5738621D02*
G01*
X3046222Y5749036D01*
X3030727Y5754115D01*
X3020313Y5754115D01*
X3004820Y5749036D01*
X2994406Y5733287D01*
X2989072Y5707379D01*
X2989072Y5681471D01*
X2994406Y5660644D01*
X3004820Y5650229D01*
X3020313Y5645150D01*
X3025393Y5645150D01*
X3041141Y5650229D01*
X3051556Y5660644D01*
X3056636Y5676137D01*
X3056636Y5681471D01*
X3051556Y5696965D01*
X3041141Y5707379D01*
X3025393Y5712460D01*
X3020313Y5712460D01*
X3004820Y5707379D01*
X2994406Y5696965D01*
X2989072Y5681471D01*
X1573784Y8166100D02*
G01*
X1682750Y8166100D01*
X1573784Y8166100D02*
G01*
X1573784Y8212836D01*
X1578863Y8228329D01*
X1584197Y8233663D01*
X1594612Y8238744D01*
X1605026Y8238744D01*
X1615439Y8233663D01*
X1620520Y8228329D01*
X1625600Y8212836D01*
X1625600Y8166100D01*
X1625600Y8202421D02*
G01*
X1682750Y8238744D01*
X1594612Y8273034D02*
G01*
X1589278Y8283447D01*
X1573784Y8299195D01*
X1682750Y8299195D01*
X2261615Y8166100D02*
G01*
X2152650Y8166100D01*
X2261615Y8166100D02*
G01*
X2261615Y8119363D01*
X2256536Y8103870D01*
X2251202Y8098536D01*
X2240788Y8093455D01*
X2230374Y8093455D01*
X2219959Y8098536D01*
X2214879Y8103870D01*
X2209800Y8119363D01*
X2209800Y8166100D01*
X2209800Y8129778D02*
G01*
X2152650Y8093455D01*
X2235708Y8053831D02*
G01*
X2240788Y8053831D01*
X2251202Y8048752D01*
X2256536Y8043418D01*
X2261615Y8033004D01*
X2261615Y8012429D01*
X2256536Y8002015D01*
X2251202Y7996681D01*
X2240788Y7991602D01*
X2230374Y7991602D01*
X2219959Y7996681D01*
X2204465Y8007095D01*
X2152650Y8059165D01*
X2152650Y7986268D01*
X2844800Y5258815D02*
G01*
X2844800Y5149850D01*
X2844800Y5258815D02*
G01*
X2891536Y5258815D01*
X2907029Y5253736D01*
X2912363Y5248402D01*
X2917443Y5237987D01*
X2917443Y5227573D01*
X2912363Y5217160D01*
X2907029Y5212079D01*
X2891536Y5207000D01*
X2844800Y5207000D01*
X2881122Y5207000D02*
G01*
X2917443Y5149850D01*
X3003804Y5258815D02*
G01*
X2951734Y5186171D01*
X3029711Y5186171D01*
X3003804Y5258815D02*
G01*
X3003804Y5149850D01*
X2857500Y4596384D02*
G01*
X2857500Y4705350D01*
X2857500Y4596384D02*
G01*
X2810763Y4596384D01*
X2795270Y4601463D01*
X2789936Y4606797D01*
X2784856Y4617212D01*
X2784856Y4627626D01*
X2789936Y4638039D01*
X2795270Y4643120D01*
X2810763Y4648200D01*
X2857500Y4648200D01*
X2821177Y4648200D02*
G01*
X2784856Y4705350D01*
X2688081Y4596384D02*
G01*
X2740152Y4596384D01*
X2745231Y4643120D01*
X2740152Y4638039D01*
X2724404Y4632705D01*
X2708909Y4632705D01*
X2693415Y4638039D01*
X2683002Y4648200D01*
X2677668Y4663947D01*
X2677668Y4674362D01*
X2683002Y4689855D01*
X2693415Y4700270D01*
X2708909Y4705350D01*
X2724404Y4705350D01*
X2740152Y4700270D01*
X2745231Y4695189D01*
X2750565Y4684776D01*
X4216400Y8611615D02*
G01*
X4216400Y8533637D01*
X4221479Y8518144D01*
X4231893Y8507729D01*
X4247641Y8502650D01*
X4258056Y8502650D01*
X4273550Y8507729D01*
X4283963Y8518144D01*
X4289043Y8533637D01*
X4289043Y8611615D01*
X4323334Y8590787D02*
G01*
X4333747Y8596121D01*
X4349495Y8611615D01*
X4349495Y8502650D01*
D11*
X4166615Y5588000D02*
G01*
X4309872Y5588000D01*
X4166615Y5588000D02*
G01*
X4309872Y5683504D01*
X4166615Y5683504D02*
G01*
X4309872Y5683504D01*
X4214368Y5810250D02*
G01*
X4309872Y5810250D01*
X4234941Y5810250D02*
G01*
X4221225Y5796534D01*
X4214368Y5783071D01*
X4214368Y5762497D01*
X4221225Y5749036D01*
X4234941Y5735320D01*
X4255261Y5728462D01*
X4268977Y5728462D01*
X4289297Y5735320D01*
X4303013Y5749036D01*
X4309872Y5762497D01*
X4309872Y5783071D01*
X4303013Y5796534D01*
X4289297Y5810250D01*
X4214368Y5855207D02*
G01*
X4309872Y5855207D01*
X4241545Y5855207D02*
G01*
X4221225Y5875781D01*
X4214368Y5889244D01*
X4214368Y5909818D01*
X4221225Y5923534D01*
X4241545Y5930392D01*
X4309872Y5930392D01*
X4214368Y6009386D02*
G01*
X4221225Y5995670D01*
X4234941Y5982207D01*
X4255261Y5975350D01*
X4268977Y5975350D01*
X4289297Y5982207D01*
X4303013Y5995670D01*
X4309872Y6009386D01*
X4309872Y6029705D01*
X4303013Y6043421D01*
X4289297Y6057137D01*
X4268977Y6063995D01*
X4255261Y6063995D01*
X4234941Y6057137D01*
X4221225Y6043421D01*
X4214368Y6029705D01*
X4214368Y6009386D01*
X4166615Y6213855D02*
G01*
X4309872Y6213855D01*
X4166615Y6213855D02*
G01*
X4166615Y6275323D01*
X4173474Y6295644D01*
X4180331Y6302502D01*
X4193793Y6309360D01*
X4207509Y6309360D01*
X4221225Y6302502D01*
X4228084Y6295644D01*
X4234941Y6275323D01*
X4234941Y6213855D01*
X4234941Y6261607D02*
G01*
X4309872Y6309360D01*
X4166615Y6354318D02*
G01*
X4309872Y6354318D01*
X4166615Y6354318D02*
G01*
X4166615Y6415786D01*
X4173474Y6436105D01*
X4180331Y6442963D01*
X4193793Y6449821D01*
X4214368Y6449821D01*
X4228084Y6442963D01*
X4234941Y6436105D01*
X4241545Y6415786D01*
X4241545Y6354318D01*
X4200652Y6501637D02*
G01*
X4193793Y6501637D01*
X4180331Y6508495D01*
X4173474Y6515354D01*
X4166615Y6528815D01*
X4166615Y6556247D01*
X4173474Y6569710D01*
X4180331Y6576568D01*
X4193793Y6583426D01*
X4207509Y6583426D01*
X4221225Y6576568D01*
X4241545Y6563105D01*
X4309872Y6494779D01*
X4309872Y6590284D01*
X4166615Y6676136D02*
G01*
X4173474Y6655815D01*
X4193793Y6642100D01*
X4228084Y6635242D01*
X4248404Y6635242D01*
X4282440Y6642100D01*
X4303013Y6655815D01*
X4309872Y6676136D01*
X4309872Y6689852D01*
X4303013Y6710171D01*
X4282440Y6723887D01*
X4248404Y6730745D01*
X4228084Y6730745D01*
X4193793Y6723887D01*
X4173474Y6710171D01*
X4166615Y6689852D01*
X4166615Y6676136D01*
X4166615Y6844029D02*
G01*
X4262120Y6775704D01*
X4262120Y6878065D01*
X4166615Y6844029D02*
G01*
X4309872Y6844029D01*
X4166615Y6963918D02*
G01*
X4173474Y6943344D01*
X4193793Y6929881D01*
X4228084Y6923023D01*
X4248404Y6923023D01*
X4282440Y6929881D01*
X4303013Y6943344D01*
X4309872Y6963918D01*
X4309872Y6977634D01*
X4303013Y6997954D01*
X4282440Y7011670D01*
X4248404Y7018528D01*
X4228084Y7018528D01*
X4193793Y7011670D01*
X4173474Y6997954D01*
X4166615Y6977634D01*
X4166615Y6963918D01*
D10*
X1763331Y5144528D02*
G01*
X1763331Y5066550D01*
X1768411Y5051056D01*
X1778825Y5040642D01*
X1794573Y5035562D01*
X1804987Y5035562D01*
X1820481Y5040642D01*
X1830895Y5051056D01*
X1835975Y5066550D01*
X1835975Y5144528D01*
X1875599Y5118620D02*
G01*
X1875599Y5123700D01*
X1880679Y5134114D01*
X1886013Y5139448D01*
X1896427Y5144528D01*
X1917001Y5144528D01*
X1927415Y5139448D01*
X1932749Y5134114D01*
X1937829Y5123700D01*
X1937829Y5113286D01*
X1932749Y5102872D01*
X1922335Y5087378D01*
X1870265Y5035562D01*
X1943163Y5035562D01*
D12*
X2383790Y5085079D02*
G01*
X2383790Y4770120D01*
X2543809Y5087620D02*
G01*
X2543809Y4767579D01*
X2383790Y4959949D02*
G01*
X2543809Y4959576D01*
X2543809Y4325620D02*
G01*
X2543809Y4640579D01*
X2383790Y4323079D02*
G01*
X2383790Y4643120D01*
X2543809Y4450750D02*
G01*
X2383790Y4451123D01*
D13*
X6286500Y7112000D02*
G01*
X6032500Y7112000D01*
X6032500Y8128000D01*
X6286500Y8128000D01*
X6286500Y7937500D01*
D14*
X6286500Y7112000D02*
G01*
X6286500Y7937500D01*
D13*
X6007100Y7112000D02*
G01*
X5753100Y7112000D01*
X5753100Y8128000D01*
X6007100Y8128000D01*
X6007100Y7937500D01*
D14*
X6007100Y7112000D02*
G01*
X6007100Y7937500D01*
D13*
X2679700Y7899400D02*
G01*
X2679700Y7645400D01*
X1663700Y7645400D01*
X1663700Y7899400D01*
X1854200Y7899400D01*
D14*
X2679700Y7899400D02*
G01*
X1854200Y7899400D01*
D13*
X2184400Y5257800D02*
G01*
X2374900Y5257800D01*
X2374900Y5511800D01*
X1612900Y5511800D01*
X1612900Y5257800D01*
D14*
X1612900Y5257800D02*
G01*
X2184400Y5257800D01*
D13*
X1803400Y7200900D02*
G01*
X1612900Y7200900D01*
X1612900Y6946900D01*
X2374900Y6946900D01*
X2374900Y7200900D01*
D14*
X2374900Y7200900D02*
G01*
X1803400Y7200900D01*
D13*
X1803400Y6921500D02*
G01*
X1612900Y6921500D01*
X1612900Y6667500D01*
X2374900Y6667500D01*
X2374900Y6921500D01*
D14*
X2374900Y6921500D02*
G01*
X1803400Y6921500D01*
D13*
X1803400Y6642100D02*
G01*
X1612900Y6642100D01*
X1612900Y6388100D01*
X2374900Y6388100D01*
X2374900Y6642100D01*
D14*
X2374900Y6642100D02*
G01*
X1803400Y6642100D01*
D13*
X1803400Y6362700D02*
G01*
X1612900Y6362700D01*
X1612900Y6108700D01*
X2374900Y6108700D01*
X2374900Y6362700D01*
D14*
X2374900Y6362700D02*
G01*
X1803400Y6362700D01*
D13*
X1803400Y6083300D02*
G01*
X1612900Y6083300D01*
X1612900Y5829300D01*
X2374900Y5829300D01*
X2374900Y6083300D01*
D14*
X2374900Y6083300D02*
G01*
X1803400Y6083300D01*
D13*
X1803400Y5803900D02*
G01*
X1612900Y5803900D01*
X1612900Y5549900D01*
X2374900Y5549900D01*
X2374900Y5803900D01*
D14*
X2374900Y5803900D02*
G01*
X1803400Y5803900D01*
D10*
X1856760Y8208721D02*
G01*
X1856760Y8304608D01*
X1724639Y8304608D01*
X1724639Y8208721D01*
X1856760Y8123478D02*
G01*
X1856760Y8027591D01*
X1724639Y8027591D01*
X1724639Y8123478D01*
X1978639Y8123478D02*
G01*
X1978639Y8027591D01*
X2110760Y8027591D01*
X2110760Y8123478D01*
X1978639Y8208721D02*
G01*
X1978639Y8304608D01*
X2110760Y8304608D01*
X2110760Y8208721D01*
X2887421Y4975839D02*
G01*
X2983308Y4975839D01*
X2983308Y5107960D01*
X2887421Y5107960D01*
X2802178Y4975839D02*
G01*
X2706291Y4975839D01*
X2706291Y5107960D01*
X2802178Y5107960D01*
X2814878Y4879360D02*
G01*
X2718991Y4879360D01*
X2718991Y4747239D01*
X2814878Y4747239D01*
X2900121Y4879360D02*
G01*
X2996008Y4879360D01*
X2996008Y4747239D01*
X2900121Y4747239D01*
D15*
X3352800Y8255000D02*
G01*
X3352800Y8204200D01*
X3352800Y8483600D02*
G01*
X3352800Y8737600D01*
X5130800Y8737600D01*
X5130800Y8483600D01*
X3352800Y4673600D02*
G01*
X3352800Y4419600D01*
X5130800Y4419600D01*
X5130800Y4673600D01*
X5143500Y8255000D02*
G01*
X5143500Y8204200D01*
X5143500Y8001000D02*
G01*
X5143500Y7950200D01*
X5143500Y4953000D02*
G01*
X5143500Y4902200D01*
X5143500Y5207000D02*
G01*
X5143500Y5156200D01*
X5143500Y5461000D02*
G01*
X5143500Y5410200D01*
X5143500Y5715000D02*
G01*
X5143500Y5664200D01*
X5143500Y5969000D02*
G01*
X5143500Y5918200D01*
X5143500Y6223000D02*
G01*
X5143500Y6172200D01*
X5143500Y6477000D02*
G01*
X5143500Y6426200D01*
X5143500Y6731000D02*
G01*
X5143500Y6680200D01*
X5143500Y6985000D02*
G01*
X5143500Y6934200D01*
X5143500Y7239000D02*
G01*
X5143500Y7188200D01*
X5143500Y7493000D02*
G01*
X5143500Y7442200D01*
X5143500Y7747000D02*
G01*
X5143500Y7696200D01*
X3352800Y4953000D02*
G01*
X3352800Y4902200D01*
X3352800Y5207000D02*
G01*
X3352800Y5156200D01*
X3352800Y5461000D02*
G01*
X3352800Y5410200D01*
X3352800Y5715000D02*
G01*
X3352800Y5664200D01*
X3352800Y5969000D02*
G01*
X3352800Y5918200D01*
X3352800Y6223000D02*
G01*
X3352800Y6172200D01*
X3352800Y6477000D02*
G01*
X3352800Y6426200D01*
X3352800Y6731000D02*
G01*
X3352800Y6680200D01*
X3352800Y6985000D02*
G01*
X3352800Y6934200D01*
X3352800Y7239000D02*
G01*
X3352800Y7188200D01*
X3352800Y7493000D02*
G01*
X3352800Y7442200D01*
X3352800Y7747000D02*
G01*
X3352800Y7696200D01*
X3352800Y8001000D02*
G01*
X3352800Y7950200D01*
X3733800Y8737600D02*
G01*
X4749800Y8737600D01*
X4749800Y7340600D01*
X3733800Y7340600D01*
X3733800Y8737600D01*
X3733800Y8356600D02*
G01*
X4749800Y8356600D01*
X4749800Y7340600D01*
X3733800Y7340600D01*
X3733800Y8356600D01*
X3860800Y4927600D02*
G01*
X4622800Y4927600D01*
X4622800Y4419600D01*
X3860800Y4419600D01*
X3860800Y4927600D01*
D10*
X1911748Y4982430D02*
G01*
X1646511Y4982430D01*
X1646511Y4867549D01*
X1911748Y4517194D02*
G01*
X1646511Y4517194D01*
X1646511Y4632076D01*
M02*
