G04 Layer: BottomLayer*
G04 EasyEDA v6.5.51, 2025-09-08 19:21:40*
G04 d3bb8f252c9f4849ab45821a22fd5e0f,1706e92ce9fe400092762f31ba6d8469,10*
G04 Gerber Generator version 0.2*
G04 Scale: 100 percent, Rotated: No, Reflected: No *
G04 Dimensions in millimeters *
G04 leading zeros omitted , absolute positions ,4 integer and 5 decimal *
%FSLAX45Y45*%
%MOMM*%

%ADD10C,0.7500*%
%ADD11C,0.2500*%
%ADD12R,1.5748X1.5748*%
%ADD13C,1.5748*%
%ADD14C,1.5240*%
%ADD15C,0.6200*%
%ADD16C,0.0154*%

%LPD*%
D10*
X2686085Y4363110D02*
G01*
X2785145Y4363110D01*
X2785145Y4363110D02*
G01*
X2901289Y4363110D01*
X2908300Y4356100D01*
X4013200Y7912100D02*
G01*
X4013200Y4940300D01*
X3429000Y4356100D01*
X2908300Y4356100D01*
X5880100Y8001000D02*
G01*
X6159500Y8001000D01*
X5880100Y8001000D02*
G01*
X5880100Y8051800D01*
X5575300Y8356600D01*
X5003800Y8356600D01*
X5880100Y7239000D02*
G01*
X6159500Y7239000D01*
X1739897Y7073884D02*
G01*
X1739900Y7340600D01*
X1790700Y7391400D01*
X1739897Y7340584D01*
X1993900Y6515100D02*
G01*
X1993900Y6794500D01*
X1993900Y6794500D02*
G01*
X1993900Y7073900D01*
X1739900Y6515100D02*
G01*
X1739900Y6235700D01*
X1739900Y6794500D02*
G01*
X1739900Y6515100D01*
X1739897Y7073884D02*
G01*
X1739897Y6794487D01*
D11*
X5003800Y6578600D02*
G01*
X5295900Y6578600D01*
X5600700Y6883400D01*
X5600700Y7404100D01*
X5689600Y7493000D01*
X5880100Y7493000D01*
X5880100Y7493000D02*
G01*
X6159500Y7493000D01*
X2298700Y7772400D02*
G01*
X2298700Y7569200D01*
X2298700Y7569200D02*
G01*
X3162300Y6604000D01*
X3467100Y6591300D01*
X3479800Y6578600D01*
X2552700Y7480300D02*
G01*
X2552700Y7772400D01*
X2247900Y6235700D02*
G01*
X2298700Y6235700D01*
X2247900Y6515100D02*
G01*
X2311400Y6515100D01*
X2247900Y6794500D02*
G01*
X2451100Y6794500D01*
X2247900Y7073900D02*
G01*
X2438400Y7073900D01*
D10*
X1993900Y6235700D02*
G01*
X1993900Y6515100D01*
X1993900Y5956300D02*
G01*
X1993900Y6235700D01*
X1993900Y5676900D02*
G01*
X1993900Y5956300D01*
X1993900Y5384800D02*
G01*
X1993900Y5676900D01*
X1739900Y5676900D02*
G01*
X1739900Y5384800D01*
X1739900Y5956300D02*
G01*
X1739900Y5676900D01*
X1739900Y6235700D02*
G01*
X1739900Y5956300D01*
D11*
X3479800Y6832600D02*
G01*
X3200400Y6832600D01*
X2552700Y7480300D01*
X2298700Y6235700D02*
G01*
X2654300Y5880100D01*
X2654300Y5740400D01*
X2832100Y5562600D01*
X3479800Y5562600D01*
X2311400Y6515100D02*
G01*
X2616200Y6210300D01*
X2616200Y6108700D01*
X2908300Y5816600D01*
X3479800Y5816600D01*
X2451100Y6794500D02*
G01*
X2654300Y6591300D01*
X2654300Y6400800D01*
X2984500Y6070600D01*
X3479800Y6070600D01*
X2438400Y7073900D02*
G01*
X2857500Y6654800D01*
X2857500Y6426200D01*
X2959100Y6324600D01*
X3479800Y6324600D01*
D10*
X4457700Y8356600D02*
G01*
X5003800Y8356600D01*
X4457689Y8356582D02*
G01*
X4457700Y8356600D01*
X4013233Y7912125D01*
D11*
X4508500Y8140700D02*
G01*
X4508500Y5753100D01*
X4699000Y5562600D01*
X5003800Y5562600D01*
X5880100Y7747000D02*
G01*
X6159500Y7747000D01*
X5003800Y6832600D02*
G01*
X5346700Y6832600D01*
X5486400Y6972300D01*
X5486400Y7620000D01*
X5613400Y7747000D01*
X5880100Y7747000D01*
X5841987Y6654787D02*
G01*
X6184887Y6654787D01*
D12*
G01*
X6159500Y8001000D03*
D13*
G01*
X6159500Y7747000D03*
G01*
X6159500Y7493000D03*
G01*
X6159500Y7239000D03*
D12*
G01*
X5880100Y8001000D03*
D13*
G01*
X5880100Y7747000D03*
G01*
X5880100Y7493000D03*
G01*
X5880100Y7239000D03*
D12*
G01*
X1790700Y7772400D03*
D13*
G01*
X2044700Y7772400D03*
G01*
X2298700Y7772400D03*
G01*
X2552700Y7772400D03*
G01*
X1739900Y5384800D03*
G01*
X1993900Y5384800D03*
D12*
G01*
X2247900Y5384800D03*
D13*
G01*
X2247900Y7073900D03*
G01*
X1993900Y7073900D03*
D12*
G01*
X1739900Y7073900D03*
D13*
G01*
X2247900Y6794500D03*
G01*
X1993900Y6794500D03*
D12*
G01*
X1739900Y6794500D03*
D13*
G01*
X2247900Y6515100D03*
G01*
X1993900Y6515100D03*
D12*
G01*
X1739900Y6515100D03*
D13*
G01*
X2247900Y6235700D03*
G01*
X1993900Y6235700D03*
D12*
G01*
X1739900Y6235700D03*
D13*
G01*
X2247900Y5956300D03*
G01*
X1993900Y5956300D03*
D12*
G01*
X1739900Y5956300D03*
D13*
G01*
X2247900Y5676900D03*
G01*
X1993900Y5676900D03*
D12*
G01*
X1739900Y5676900D03*
D14*
G01*
X3479800Y8356600D03*
G01*
X3479800Y8102600D03*
G01*
X3479800Y7848600D03*
G01*
X3479800Y7594600D03*
G01*
X3479800Y7340600D03*
G01*
X3479800Y7086600D03*
G01*
X3479800Y6832600D03*
G01*
X3479800Y6578600D03*
G01*
X3479800Y6324600D03*
G01*
X3479800Y6070600D03*
G01*
X3479800Y5816600D03*
G01*
X3479800Y5562600D03*
G01*
X3479800Y5308600D03*
G01*
X3479800Y5054600D03*
G01*
X3479800Y4800600D03*
G01*
X5003800Y4800600D03*
G01*
X5003800Y5054600D03*
G01*
X5003800Y5308600D03*
G01*
X5003800Y5562600D03*
G01*
X5003800Y5816600D03*
G01*
X5003800Y6070600D03*
G01*
X5003800Y6324600D03*
G01*
X5003800Y6578600D03*
G01*
X5003800Y6832600D03*
G01*
X5003800Y7086600D03*
G01*
X5003800Y7340600D03*
G01*
X5003800Y7594600D03*
G01*
X5003800Y7848600D03*
G01*
X5003800Y8102600D03*
G01*
X5003800Y8356600D03*
G01*
X5588000Y6350000D03*
G01*
X5791200Y6350000D03*
G01*
X5791200Y6159500D03*
G01*
X5588000Y6159500D03*
G01*
X5994400Y6159500D03*
G01*
X6197600Y6159500D03*
G01*
X6197600Y6350000D03*
G01*
X5994400Y6350000D03*
G01*
X5994400Y5969000D03*
G01*
X6197600Y5969000D03*
G01*
X6197600Y5778500D03*
G01*
X5994400Y5778500D03*
G01*
X5588000Y5778500D03*
G01*
X5791200Y5778500D03*
G01*
X5791200Y5969000D03*
G01*
X5588000Y5969000D03*
G01*
X5588000Y5207000D03*
G01*
X5791200Y5207000D03*
G01*
X5791200Y5016500D03*
G01*
X5588000Y5016500D03*
G01*
X5994400Y5016500D03*
G01*
X6197600Y5016500D03*
G01*
X6197600Y5207000D03*
G01*
X5994400Y5207000D03*
G01*
X5994400Y5588000D03*
G01*
X6197600Y5588000D03*
G01*
X6197600Y5397500D03*
G01*
X5994400Y5397500D03*
G01*
X5588000Y5397500D03*
G01*
X5791200Y5397500D03*
G01*
X5791200Y5588000D03*
G01*
X5588000Y5588000D03*
G01*
X5994400Y4826000D03*
G01*
X6197600Y4826000D03*
G01*
X6197600Y4635500D03*
G01*
X5994400Y4635500D03*
G01*
X5588000Y4635500D03*
G01*
X5791200Y4635500D03*
G01*
X5791200Y4826000D03*
G01*
X5588000Y4826000D03*
D15*
G01*
X4508500Y8140700D03*
G01*
X2908300Y4356100D03*
G01*
X2785145Y4363110D03*
G01*
X2686085Y4363110D03*
M02*
